<?xml version="1.0" encoding="UTF-8"?>
<svg width="142px" height="103px" viewBox="0 0 142 103" version="1.1" xmlns="http://www.w3.org/2000/svg" xmlns:xlink="http://www.w3.org/1999/xlink">
    <!-- Generator: Sketch 46.2 (44496) - http://www.bohemiancoding.com/sketch -->
    <title>Group 2</title>
    <desc>Created with Sketch.</desc>
    <defs></defs>
    <g id="Page-1" stroke="none" stroke-width="1" fill="none" fill-rule="evenodd">
        <g id="Home" transform="translate(-143.000000, -52.000000)" fill="#FFFFFF">
            <g id="Group-2" transform="translate(143.000000, 31.000000)">
                <path d="M26.2898571,111.237 C27.0278608,111.795003 27.3968571,112.565995 27.3968571,113.55 C27.3968571,114.270004 27.1928591,114.878998 26.7848571,115.377 C26.3768551,115.875002 25.8188606,116.207999 25.1108571,116.376 C25.9868615,116.508001 26.6738546,116.858997 27.1718571,117.429 C27.6698596,117.999003 27.9188571,118.709996 27.9188571,119.562 C27.9188571,120.642005 27.5138612,121.484997 26.7038571,122.091 C25.8938531,122.697003 24.7748642,123 23.3468571,123 L17.8748571,123 L17.8748571,110.4 L23.2568571,110.4 C24.5408635,110.4 25.5518534,110.678997 26.2898571,111.237 Z M24.9758571,115.251 C25.4018592,114.920998 25.6148571,114.450003 25.6148571,113.838 C25.6148571,113.237997 25.4018592,112.776002 24.9758571,112.452 C24.549855,112.127998 23.946861,111.972 23.1668571,111.984 L19.6028571,111.984 L19.6028571,115.746 L23.1668571,115.746 C23.946861,115.746 24.549855,115.581002 24.9758571,115.251 Z M25.3628571,120.885 C25.8908597,120.518998 26.1548571,120.006003 26.1548571,119.346 C26.1548571,118.709997 25.8908597,118.212002 25.3628571,117.852 C24.8348545,117.491998 24.1028618,117.312 23.1668571,117.312 L19.6028571,117.312 L19.6028571,121.416 L23.1668571,121.416 C24.1028618,121.428 24.8348545,121.251002 25.3628571,120.885 Z M40.908,123 L39.576,119.94 L32.934,119.94 L31.62,123 L29.802,123 L35.4,110.4 L37.2,110.4 L42.78,123 L40.908,123 Z M33.618,118.374 L38.91,118.374 L36.246,112.254 L33.618,118.374 Z M56.0391428,123 L53.9511428,123 L49.5231428,117.186 L47.2011428,119.706 L47.2011428,123 L45.4731428,123 L45.4731428,110.4 L47.2011428,110.4 L47.2011428,117.474 L53.6451428,110.4 L55.7151428,110.4 L50.7291428,115.836 L56.0391428,123 Z M59.0562857,110.4 L67.8042857,110.4 L67.8042857,111.966 L60.7842857,111.966 L60.7842857,115.854 L67.0662857,115.854 L67.0662857,117.42 L60.7842857,117.42 L60.7842857,121.434 L68.0202857,121.434 L68.0202857,123 L59.0562857,123 L59.0562857,110.4 Z M82.7755714,112.191 C82.1455683,112.004999 81.5665741,111.912 81.0385714,111.912 C80.3065678,111.912 79.7215736,112.052999 79.2835714,112.335 C78.8455692,112.617001 78.6265714,113.003998 78.6265714,113.496 C78.6265714,113.940002 78.7585701,114.302999 79.0225714,114.585 C79.2865728,114.867001 79.6105695,115.088999 79.9945714,115.251 C80.3785734,115.413001 80.912568,115.601999 81.5965714,115.818 C82.4485757,116.082001 83.1385688,116.333999 83.6665714,116.574 C84.1945741,116.814001 84.6445696,117.170998 85.0165714,117.645 C85.3885733,118.119002 85.5745714,118.745996 85.5745714,119.526 C85.5745714,120.246004 85.3795734,120.875997 84.9895714,121.416 C84.5995695,121.956003 84.0535749,122.372999 83.3515714,122.667 C82.6495679,122.961001 81.842576,123.108 80.9305714,123.108 C80.0065668,123.108 79.1065758,122.928002 78.2305714,122.568 C77.3545671,122.207998 76.5985746,121.728003 75.9625714,121.128 L76.7365714,119.634 C77.3365744,120.222003 78.0115677,120.674998 78.7615714,120.993 C79.5115752,121.311002 80.2405679,121.47 80.9485714,121.47 C81.7885756,121.47 82.451569,121.305002 82.9375714,120.975 C83.4235739,120.644998 83.6665714,120.198003 83.6665714,119.634 C83.6665714,119.189998 83.5345728,118.824001 83.2705714,118.536 C83.0065701,118.247999 82.6735734,118.020001 82.2715714,117.852 C81.8695694,117.683999 81.3265749,117.498001 80.6425714,117.294 C79.8025672,117.041999 79.1185741,116.796001 78.5905714,116.556 C78.0625688,116.315999 77.6155733,115.962002 77.2495714,115.494 C76.8835696,115.025998 76.7005714,114.408004 76.7005714,113.64 C76.7005714,112.967997 76.8865696,112.374003 77.2585714,111.858 C77.6305733,111.341997 78.1525681,110.946001 78.8245714,110.67 C79.4965748,110.393999 80.276567,110.256 81.1645714,110.256 C81.9205752,110.256 82.6615678,110.366999 83.3875714,110.589 C84.1135751,110.811001 84.7585686,111.107998 85.3225714,111.48 L84.6025714,113.028 C84.0145685,112.655998 83.4055746,112.377001 82.7755714,112.191 Z M89.1857143,110.4 L90.9137143,110.4 L90.9137143,116.016 L98.1137143,116.016 L98.1137143,110.4 L99.8597143,110.4 L99.8597143,123 L98.1137143,123 L98.1137143,117.582 L90.9137143,117.582 L90.9137143,123 L89.1857143,123 L89.1857143,110.4 Z M113.163857,111.138 C114.177862,111.702003 114.978854,112.472995 115.566857,113.451 C116.15486,114.429005 116.448857,115.505994 116.448857,116.682 C116.448857,117.858006 116.15486,118.940995 115.566857,119.931 C114.978854,120.921005 114.177862,121.700997 113.163857,122.271 C112.149852,122.841003 111.036863,123.126 109.824857,123.126 C108.612851,123.126 107.499862,122.841003 106.485857,122.271 C105.471852,121.700997 104.67086,120.921005 104.082857,119.931 C103.494854,118.940995 103.200857,117.858006 103.200857,116.682 C103.200857,115.505994 103.494854,114.429005 104.082857,113.451 C104.67086,112.472995 105.468852,111.702003 106.476857,111.138 C107.484862,110.573997 108.600851,110.292 109.824857,110.292 C111.036863,110.292 112.149852,110.573997 113.163857,111.138 Z M107.403857,112.488 C106.653853,112.920002 106.056859,113.504996 105.612857,114.243 C105.168855,114.981004 104.946857,115.793996 104.946857,116.682 C104.946857,117.570004 105.168855,118.385996 105.612857,119.13 C106.056859,119.874004 106.653853,120.464998 107.403857,120.903 C108.153861,121.341002 108.966853,121.56 109.842857,121.56 C110.718862,121.56 111.525853,121.341002 112.263857,120.903 C113.001861,120.464998 113.589855,119.874004 114.027857,119.13 C114.465859,118.385996 114.684857,117.570004 114.684857,116.682 C114.684857,115.793996 114.465859,114.981004 114.027857,114.243 C113.589855,113.504996 113.001861,112.920002 112.263857,112.488 C111.525853,112.055998 110.718862,111.84 109.842857,111.84 C108.966853,111.84 108.153861,112.055998 107.403857,112.488 Z M128.295,111.516 C129.153004,112.260004 129.582,113.303993 129.582,114.648 C129.582,116.052007 129.150004,117.140996 128.286,117.915 C127.421996,118.689004 126.210008,119.076 124.65,119.076 L121.518,119.076 L121.518,123 L119.79,123 L119.79,110.4 L124.65,110.4 C126.222008,110.4 127.436996,110.771996 128.295,111.516 Z M127.062,116.799 C127.638003,116.324998 127.926,115.626005 127.926,114.702 C127.926,113.801996 127.638003,113.121002 127.062,112.659 C126.485997,112.196998 125.658005,111.966 124.578,111.966 L121.518,111.984 L121.518,117.51 L124.578,117.51 C125.658005,117.51 126.485997,117.273002 127.062,116.799 Z" id="BAKE-SHOP"></path>
                <g id="Group">
                    <path d="M129.590727,57.9912109 C133.838795,59.7327561 136.931212,61.8811721 138.868071,64.4365234 C140.804929,66.9918748 141.773344,69.7180845 141.773344,72.6152344 C141.773344,79.1256836 139.161066,83.9840334 133.93643,87.1904297 C128.711795,90.3968259 121.314408,92 111.744047,92 C110.344301,92 107.870367,91.9511724 104.322172,91.8535156 C100.773978,91.7558589 97.1932842,91.7070312 93.5799849,91.7070312 C85.7674458,91.7070312 79.9569571,91.8046865 76.1483443,92 L76.1483443,89.9980469 C78.2967925,89.9003901 79.851139,89.6399761 80.8114302,89.2167969 C81.7717215,88.7936177 82.4227566,88.0123755 82.7645552,86.8730469 C83.1063538,85.7337183 83.2772505,83.9108198 83.2772505,81.4042969 L83.2772505,31.7949219 C83.2772505,29.2883989 83.0982159,27.4655005 82.7401412,26.3261719 C82.3820664,25.1868433 81.7228934,24.4056011 80.7626021,23.9824219 C79.8023108,23.5592427 78.2642403,23.2988286 76.1483443,23.2011719 L76.1483443,21.1992188 C79.9569571,21.3945322 85.7023423,21.4921875 93.3846724,21.4921875 C96.1190611,21.4921875 99.1626504,21.4596357 102.515532,21.3945312 C105.868413,21.3294268 108.179588,21.296875 109.449126,21.296875 C115.373634,21.296875 120.362191,21.9560481 124.414946,23.2744141 C128.4677,24.59278 131.503152,26.4319543 133.521391,28.7919922 C135.53963,31.15203 136.548735,33.8945156 136.548735,37.0195312 C136.548735,39.493502 135.694251,41.9674355 133.985258,44.4414062 C132.276265,46.915377 129.680263,49.0882068 126.197172,50.9599609 C122.714082,52.8317151 118.466078,54.0768198 113.453032,54.6953125 L113.453032,54.890625 C119.963481,55.2161475 125.342659,56.2496658 129.590727,57.9912109 Z M113.819243,49.9833984 C115.235265,47.0374202 115.943266,43.0742437 115.943266,38.09375 C115.943266,33.0481519 115.406162,29.3046997 114.331938,26.8632812 C113.257714,24.4218628 111.467367,23.2011719 108.960844,23.2011719 C107.430889,23.2011719 106.283439,23.4371721 105.518461,23.9091797 C104.753484,24.3811873 104.232656,25.219395 103.955961,26.4238281 C103.679267,27.6282612 103.540922,29.4186079 103.540922,31.7949219 L103.540922,54.4023438 L106.275297,54.4023438 C109.888597,54.4023438 112.40322,52.9293767 113.819243,49.9833984 Z M104.053618,86.7265625 C104.395416,87.8658911 105.0139,88.6471333 105.909086,89.0703125 C106.804273,89.4934917 108.195861,89.7050781 110.083891,89.7050781 C117.212833,89.7050781 120.777251,83.8620376 120.777251,72.1757812 C120.777251,66.9348696 119.51587,62.9472793 116.993071,60.2128906 C114.470272,57.478502 110.458268,56.1113281 104.956938,56.1113281 L103.540922,56.1113281 L103.540922,81.4042969 C103.540922,83.8131631 103.711819,85.5872339 104.053618,86.7265625 Z" id="B"></path>
                    <path d="M53.5907271,57.9912109 C57.8387952,59.7327561 60.9312122,61.8811721 62.8680708,64.4365234 C64.8049295,66.9918748 65.7733443,69.7180845 65.7733443,72.6152344 C65.7733443,79.1256836 63.1610657,83.9840334 57.9364302,87.1904297 C52.7117947,90.3968259 45.3144078,92 35.7440474,92 C34.3443008,92 31.8703672,91.9511724 28.3221724,91.8535156 C24.7739776,91.7558589 21.1932842,91.7070312 17.5799849,91.7070312 C9.76744584,91.7070312 3.95695707,91.8046865 0.148344278,92 L0.148344278,89.9980469 C2.29679252,89.9003901 3.85113896,89.6399761 4.81143022,89.2167969 C5.77172148,88.7936177 6.42275663,88.0123755 6.76455522,86.8730469 C7.1063538,85.7337183 7.27725053,83.9108198 7.27725053,81.4042969 L7.27725053,31.7949219 C7.27725053,29.2883989 7.09821586,27.4655005 6.74014115,26.3261719 C6.38206645,25.1868433 5.72289335,24.4056011 4.76260209,23.9824219 C3.80231083,23.5592427 2.26424027,23.2988286 0.148344278,23.2011719 L0.148344278,21.1992188 C3.95695707,21.3945322 9.70234233,21.4921875 17.3846724,21.4921875 C20.1190611,21.4921875 23.1626504,21.4596357 26.5155318,21.3945312 C29.8684131,21.3294268 32.1795879,21.296875 33.4491255,21.296875 C39.3736343,21.296875 44.3621912,21.9560481 48.4149458,23.2744141 C52.4677005,24.59278 55.5031519,26.4319543 57.5213912,28.7919922 C59.5396304,31.15203 60.5487349,33.8945156 60.5487349,37.0195312 C60.5487349,39.493502 59.6942513,41.9674355 57.9852583,44.4414062 C56.2762654,46.915377 53.6802627,49.0882068 50.1971724,50.9599609 C46.7140821,52.8317151 42.4660777,54.0768198 37.4530318,54.6953125 L37.4530318,54.890625 C43.963481,55.2161475 49.342659,56.2496658 53.5907271,57.9912109 Z M37.8192427,49.9833984 C39.2352654,47.0374202 39.9432662,43.0742437 39.9432662,38.09375 C39.9432662,33.0481519 39.4061621,29.3046997 38.331938,26.8632812 C37.2577139,24.4218628 35.4673672,23.2011719 32.9608443,23.2011719 C31.4308887,23.2011719 30.2834392,23.4371721 29.5184615,23.9091797 C28.7534837,24.3811873 28.2326556,25.219395 27.9559615,26.4238281 C27.6792674,27.6282612 27.5409224,29.4186079 27.5409224,31.7949219 L27.5409224,54.4023438 L30.2752974,54.4023438 C33.8885967,54.4023438 36.40322,52.9293767 37.8192427,49.9833984 Z M28.0536177,86.7265625 C28.3954163,87.8658911 29.0138997,88.6471333 29.9090865,89.0703125 C30.8042732,89.4934917 32.1958609,89.7050781 34.0838912,89.7050781 C41.212833,89.7050781 44.7772505,83.8620376 44.7772505,72.1757812 C44.7772505,66.9348696 43.5158699,62.9472793 40.9930708,60.2128906 C38.4702718,57.478502 34.4582676,56.1113281 28.956938,56.1113281 L27.5409224,56.1113281 L27.5409224,81.4042969 C27.5409224,83.8131631 27.7118191,85.5872339 28.0536177,86.7265625 Z" id="B-Copy" transform="translate(32.960844, 56.599609) scale(-1, 1) translate(-32.960844, -56.599609) "></path>
                </g>
            </g>
        </g>
    </g>
</svg>