<?xml version="1.0" encoding="UTF-8"?>
<svg width="142px" height="103px" viewBox="0 0 142 103" version="1.1" xmlns="http://www.w3.org/2000/svg" xmlns:xlink="http://www.w3.org/1999/xlink">
    <!-- Generator: Sketch 46.2 (44496) - http://www.bohemiancoding.com/sketch -->
    <title>Group 2</title>
    <desc>Created with Sketch.</desc>
    <defs></defs>
    <g id="Page-1" stroke="none" stroke-width="1" fill="none" fill-rule="evenodd">
        <g id="Home" transform="translate(-143.000000, -52.000000)" fill="#000000">
            <g id="Group-2" transform="translate(143.000000, 52.000000)">
                <path d="M26.2898571,90.237 C27.0278608,90.7950028 27.3968571,91.5659951 27.3968571,92.55 C27.3968571,93.2700036 27.1928591,93.8789975 26.7848571,94.377 C26.3768551,94.8750025 25.8188606,95.2079992 25.1108571,95.376 C25.9868615,95.5080007 26.6738546,95.8589971 27.1718571,96.429 C27.6698596,96.9990028 27.9188571,97.7099957 27.9188571,98.562 C27.9188571,99.6420054 27.5138612,100.484997 26.7038571,101.091 C25.8938531,101.697003 24.7748642,102 23.3468571,102 L17.8748571,102 L17.8748571,89.4 L23.2568571,89.4 C24.5408635,89.4 25.5518534,89.6789972 26.2898571,90.237 Z M24.9758571,94.251 C25.4018592,93.9209983 25.6148571,93.4500031 25.6148571,92.838 C25.6148571,92.237997 25.4018592,91.7760016 24.9758571,91.452 C24.549855,91.1279984 23.946861,90.9719999 23.1668571,90.984 L19.6028571,90.984 L19.6028571,94.746 L23.1668571,94.746 C23.946861,94.746 24.549855,94.5810017 24.9758571,94.251 Z M25.3628571,99.885 C25.8908597,99.5189982 26.1548571,99.0060033 26.1548571,98.346 C26.1548571,97.7099968 25.8908597,97.2120018 25.3628571,96.852 C24.8348545,96.4919982 24.1028618,96.312 23.1668571,96.312 L19.6028571,96.312 L19.6028571,100.416 L23.1668571,100.416 C24.1028618,100.428 24.8348545,100.251002 25.3628571,99.885 Z M40.908,102 L39.576,98.94 L32.934,98.94 L31.62,102 L29.802,102 L35.4,89.4 L37.2,89.4 L42.78,102 L40.908,102 Z M33.618,97.374 L38.91,97.374 L36.246,91.254 L33.618,97.374 Z M56.0391428,102 L53.9511428,102 L49.5231428,96.186 L47.2011428,98.706 L47.2011428,102 L45.4731428,102 L45.4731428,89.4 L47.2011428,89.4 L47.2011428,96.474 L53.6451428,89.4 L55.7151428,89.4 L50.7291428,94.836 L56.0391428,102 Z M59.0562857,89.4 L67.8042857,89.4 L67.8042857,90.966 L60.7842857,90.966 L60.7842857,94.854 L67.0662857,94.854 L67.0662857,96.42 L60.7842857,96.42 L60.7842857,100.434 L68.0202857,100.434 L68.0202857,102 L59.0562857,102 L59.0562857,89.4 Z M82.7755714,91.191 C82.1455683,91.0049991 81.5665741,90.912 81.0385714,90.912 C80.3065678,90.912 79.7215736,91.0529986 79.2835714,91.335 C78.8455692,91.6170014 78.6265714,92.0039975 78.6265714,92.496 C78.6265714,92.9400022 78.7585701,93.3029986 79.0225714,93.585 C79.2865728,93.8670014 79.6105695,94.0889992 79.9945714,94.251 C80.3785734,94.4130008 80.912568,94.6019989 81.5965714,94.818 C82.4485757,95.0820013 83.1385688,95.3339988 83.6665714,95.574 C84.1945741,95.8140012 84.6445696,96.1709976 85.0165714,96.645 C85.3885733,97.1190024 85.5745714,97.7459961 85.5745714,98.526 C85.5745714,99.2460036 85.3795734,99.8759973 84.9895714,100.416 C84.5995695,100.956003 84.0535749,101.372999 83.3515714,101.667 C82.6495679,101.961001 81.842576,102.108 80.9305714,102.108 C80.0065668,102.108 79.1065758,101.928002 78.2305714,101.568 C77.3545671,101.207998 76.5985746,100.728003 75.9625714,100.128 L76.7365714,98.634 C77.3365744,99.2220029 78.0115677,99.6749984 78.7615714,99.993 C79.5115752,100.311002 80.2405679,100.47 80.9485714,100.47 C81.7885756,100.47 82.451569,100.305002 82.9375714,99.975 C83.4235739,99.6449983 83.6665714,99.1980028 83.6665714,98.634 C83.6665714,98.1899978 83.5345728,97.8240014 83.2705714,97.536 C83.0065701,97.2479986 82.6735734,97.0200008 82.2715714,96.852 C81.8695694,96.6839992 81.3265749,96.498001 80.6425714,96.294 C79.8025672,96.0419987 79.1185741,95.7960012 78.5905714,95.556 C78.0625688,95.3159988 77.6155733,94.9620023 77.2495714,94.494 C76.8835696,94.0259977 76.7005714,93.4080038 76.7005714,92.64 C76.7005714,91.9679966 76.8865696,91.3740026 77.2585714,90.858 C77.6305733,90.3419974 78.1525681,89.9460014 78.8245714,89.67 C79.4965748,89.3939986 80.276567,89.256 81.1645714,89.256 C81.9205752,89.256 82.6615678,89.3669989 83.3875714,89.589 C84.1135751,89.8110011 84.7585686,90.1079981 85.3225714,90.48 L84.6025714,92.028 C84.0145685,91.6559981 83.4055746,91.3770009 82.7755714,91.191 Z M89.1857143,89.4 L90.9137143,89.4 L90.9137143,95.016 L98.1137143,95.016 L98.1137143,89.4 L99.8597143,89.4 L99.8597143,102 L98.1137143,102 L98.1137143,96.582 L90.9137143,96.582 L90.9137143,102 L89.1857143,102 L89.1857143,89.4 Z M113.163857,90.138 C114.177862,90.7020028 114.978854,91.4729951 115.566857,92.451 C116.15486,93.4290049 116.448857,94.5059941 116.448857,95.682 C116.448857,96.8580059 116.15486,97.940995 115.566857,98.931 C114.978854,99.9210049 114.177862,100.700997 113.163857,101.271 C112.149852,101.841003 111.036863,102.126 109.824857,102.126 C108.612851,102.126 107.499862,101.841003 106.485857,101.271 C105.471852,100.700997 104.67086,99.9210049 104.082857,98.931 C103.494854,97.940995 103.200857,96.8580059 103.200857,95.682 C103.200857,94.5059941 103.494854,93.4290049 104.082857,92.451 C104.67086,91.4729951 105.468852,90.7020028 106.476857,90.138 C107.484862,89.5739972 108.600851,89.292 109.824857,89.292 C111.036863,89.292 112.149852,89.5739972 113.163857,90.138 Z M107.403857,91.488 C106.653853,91.9200022 106.056859,92.5049963 105.612857,93.243 C105.168855,93.9810037 104.946857,94.7939956 104.946857,95.682 C104.946857,96.5700044 105.168855,97.3859963 105.612857,98.13 C106.056859,98.8740037 106.653853,99.4649978 107.403857,99.903 C108.153861,100.341002 108.966853,100.56 109.842857,100.56 C110.718862,100.56 111.525853,100.341002 112.263857,99.903 C113.001861,99.4649978 113.589855,98.8740037 114.027857,98.13 C114.465859,97.3859963 114.684857,96.5700044 114.684857,95.682 C114.684857,94.7939956 114.465859,93.9810037 114.027857,93.243 C113.589855,92.5049963 113.001861,91.9200022 112.263857,91.488 C111.525853,91.0559978 110.718862,90.84 109.842857,90.84 C108.966853,90.84 108.153861,91.0559978 107.403857,91.488 Z M128.295,90.516 C129.153004,91.2600037 129.582,92.3039933 129.582,93.648 C129.582,95.052007 129.150004,96.1409961 128.286,96.915 C127.421996,97.6890039 126.210008,98.076 124.65,98.076 L121.518,98.076 L121.518,102 L119.79,102 L119.79,89.4 L124.65,89.4 C126.222008,89.4 127.436996,89.7719963 128.295,90.516 Z M127.062,95.799 C127.638003,95.3249976 127.926,94.6260046 127.926,93.702 C127.926,92.8019955 127.638003,92.1210023 127.062,91.659 C126.485997,91.1969977 125.658005,90.966 124.578,90.966 L121.518,90.984 L121.518,96.51 L124.578,96.51 C125.658005,96.51 126.485997,96.2730024 127.062,95.799 Z" id="BAKE-SHOP"></path>
                <g id="Group">
                    <path d="M129.590727,36.9912109 C133.838795,38.7327561 136.931212,40.8811721 138.868071,43.4365234 C140.804929,45.9918748 141.773344,48.7180845 141.773344,51.6152344 C141.773344,58.1256836 139.161066,62.9840334 133.93643,66.1904297 C128.711795,69.3968259 121.314408,71 111.744047,71 C110.344301,71 107.870367,70.9511724 104.322172,70.8535156 C100.773978,70.7558589 97.1932842,70.7070312 93.5799849,70.7070312 C85.7674458,70.7070312 79.9569571,70.8046865 76.1483443,71 L76.1483443,68.9980469 C78.2967925,68.9003901 79.851139,68.6399761 80.8114302,68.2167969 C81.7717215,67.7936177 82.4227566,67.0123755 82.7645552,65.8730469 C83.1063538,64.7337183 83.2772505,62.9108198 83.2772505,60.4042969 L83.2772505,10.7949219 C83.2772505,8.28839893 83.0982159,6.46550049 82.7401412,5.32617188 C82.3820664,4.18684326 81.7228934,3.40560107 80.7626021,2.98242188 C79.8023108,2.55924268 78.2642403,2.29882861 76.1483443,2.20117188 L76.1483443,0.19921875 C79.9569571,0.394532227 85.7023423,0.4921875 93.3846724,0.4921875 C96.1190611,0.4921875 99.1626504,0.459635742 102.515532,0.39453125 C105.868413,0.329426758 108.179588,0.296875 109.449126,0.296875 C115.373634,0.296875 120.362191,0.956048096 124.414946,2.27441406 C128.4677,3.59278003 131.503152,5.43195435 133.521391,7.79199219 C135.53963,10.15203 136.548735,12.8945156 136.548735,16.0195312 C136.548735,18.493502 135.694251,20.9674355 133.985258,23.4414062 C132.276265,25.915377 129.680263,28.0882068 126.197172,29.9599609 C122.714082,31.8317151 118.466078,33.0768198 113.453032,33.6953125 L113.453032,33.890625 C119.963481,34.2161475 125.342659,35.2496658 129.590727,36.9912109 Z M113.819243,28.9833984 C115.235265,26.0374202 115.943266,22.0742437 115.943266,17.09375 C115.943266,12.0481519 115.406162,8.30469971 114.331938,5.86328125 C113.257714,3.42186279 111.467367,2.20117188 108.960844,2.20117188 C107.430889,2.20117188 106.283439,2.43717212 105.518461,2.90917969 C104.753484,3.38118726 104.232656,4.21939502 103.955961,5.42382813 C103.679267,6.62826123 103.540922,8.41860791 103.540922,10.7949219 L103.540922,33.4023438 L106.275297,33.4023438 C109.888597,33.4023438 112.40322,31.9293767 113.819243,28.9833984 Z M104.053618,65.7265625 C104.395416,66.8658911 105.0139,67.6471333 105.909086,68.0703125 C106.804273,68.4934917 108.195861,68.7050781 110.083891,68.7050781 C117.212833,68.7050781 120.777251,62.8620376 120.777251,51.1757812 C120.777251,45.9348696 119.51587,41.9472793 116.993071,39.2128906 C114.470272,36.478502 110.458268,35.1113281 104.956938,35.1113281 L103.540922,35.1113281 L103.540922,60.4042969 C103.540922,62.8131631 103.711819,64.5872339 104.053618,65.7265625 Z" id="B"></path>
                    <path d="M53.5907271,36.9912109 C57.8387952,38.7327561 60.9312122,40.8811721 62.8680708,43.4365234 C64.8049295,45.9918748 65.7733443,48.7180845 65.7733443,51.6152344 C65.7733443,58.1256836 63.1610657,62.9840334 57.9364302,66.1904297 C52.7117947,69.3968259 45.3144078,71 35.7440474,71 C34.3443008,71 31.8703672,70.9511724 28.3221724,70.8535156 C24.7739776,70.7558589 21.1932842,70.7070312 17.5799849,70.7070312 C9.76744584,70.7070312 3.95695707,70.8046865 0.148344278,71 L0.148344278,68.9980469 C2.29679252,68.9003901 3.85113896,68.6399761 4.81143022,68.2167969 C5.77172148,67.7936177 6.42275663,67.0123755 6.76455522,65.8730469 C7.1063538,64.7337183 7.27725053,62.9108198 7.27725053,60.4042969 L7.27725053,10.7949219 C7.27725053,8.28839893 7.09821586,6.46550049 6.74014115,5.32617188 C6.38206645,4.18684326 5.72289335,3.40560107 4.76260209,2.98242188 C3.80231083,2.55924268 2.26424027,2.29882861 0.148344278,2.20117188 L0.148344278,0.19921875 C3.95695707,0.394532227 9.70234233,0.4921875 17.3846724,0.4921875 C20.1190611,0.4921875 23.1626504,0.459635742 26.5155318,0.39453125 C29.8684131,0.329426758 32.1795879,0.296875 33.4491255,0.296875 C39.3736343,0.296875 44.3621912,0.956048096 48.4149458,2.27441406 C52.4677005,3.59278003 55.5031519,5.43195435 57.5213912,7.79199219 C59.5396304,10.15203 60.5487349,12.8945156 60.5487349,16.0195312 C60.5487349,18.493502 59.6942513,20.9674355 57.9852583,23.4414062 C56.2762654,25.915377 53.6802627,28.0882068 50.1971724,29.9599609 C46.7140821,31.8317151 42.4660777,33.0768198 37.4530318,33.6953125 L37.4530318,33.890625 C43.963481,34.2161475 49.342659,35.2496658 53.5907271,36.9912109 Z M37.8192427,28.9833984 C39.2352654,26.0374202 39.9432662,22.0742437 39.9432662,17.09375 C39.9432662,12.0481519 39.4061621,8.30469971 38.331938,5.86328125 C37.2577139,3.42186279 35.4673672,2.20117188 32.9608443,2.20117188 C31.4308887,2.20117188 30.2834392,2.43717212 29.5184615,2.90917969 C28.7534837,3.38118726 28.2326556,4.21939502 27.9559615,5.42382813 C27.6792674,6.62826123 27.5409224,8.41860791 27.5409224,10.7949219 L27.5409224,33.4023438 L30.2752974,33.4023438 C33.8885967,33.4023438 36.40322,31.9293767 37.8192427,28.9833984 Z M28.0536177,65.7265625 C28.3954163,66.8658911 29.0138997,67.6471333 29.9090865,68.0703125 C30.8042732,68.4934917 32.1958609,68.7050781 34.0838912,68.7050781 C41.212833,68.7050781 44.7772505,62.8620376 44.7772505,51.1757812 C44.7772505,45.9348696 43.5158699,41.9472793 40.9930708,39.2128906 C38.4702718,36.478502 34.4582676,35.1113281 28.956938,35.1113281 L27.5409224,35.1113281 L27.5409224,60.4042969 C27.5409224,62.8131631 27.7118191,64.5872339 28.0536177,65.7265625 Z" id="B-Copy" transform="translate(32.960844, 35.599609) scale(-1, 1) translate(-32.960844, -35.599609) "></path>
                </g>
            </g>
        </g>
    </g>
</svg>